<?xml version="1.0" encoding="utf-8"?>
<!-- Generator: Adobe Illustrator 21.1.0, SVG Export Plug-In . SVG Version: 6.00 Build 0)  -->
<svg version="1.1" id="Layer_1" xmlns="http://www.w3.org/2000/svg" xmlns:xlink="http://www.w3.org/1999/xlink" x="0px" y="0px"
	 viewBox="0 0 500 500" style="enable-background:new 0 0 500 500;" xml:space="preserve">
<style type="text/css">
	.st0{fill:#FF1D25;}
	.st1{fill:#3FA9F5;}
	.st2{fill:none;stroke:#000000;stroke-miterlimit:10;}
	.st3{fill:#FCEE21;}
</style>
<g>
	<polygon class="st0" points="257.4,246.5 441.4,140.2 441.4,385.7 257.4,492 	"/>
	<path d="M440.9,141.1v244.3l-183,105.7V246.7L440.9,141.1 M441.9,139.4l-185,106.8v246.7l185-106.8V139.4L441.9,139.4z"/>
</g>
<g>
	<polygon class="st1" points="73.6,385.7 73.6,140.2 257.6,246.5 257.6,492 	"/>
	<path d="M74.1,141.1l183,105.7v244.3l-183-105.7V141.1 M73.1,139.4V386l185,106.8V246.2L73.1,139.4L73.1,139.4z"/>
</g>
<g>
	<path class="st2" d="M323.8-4.3"/>
</g>
<g>
	<path class="st2" d="M73.6,140.2"/>
</g>
<g>
	<line class="st2" x1="74" y1="139.3" x2="258.2" y2="33"/>
</g>
<g>
	<polygon class="st2" points="73.5,140.5 257.7,33.1 440.6,139.1 256.9,246.2 	"/>
	<polygon class="st3" points="73.5,140.5 257.7,33.1 440.6,139.1 256.9,246.2 	"/>
</g>
<line class="st2" x1="72.5" y1="140.5" x2="256.5" y2="246.5"/>
<line class="st2" x1="256.5" y1="245.5" x2="257.5" y2="490.5"/>
</svg>
